<?xml version="1.0" standalone="no"?>
<!DOCTYPE svg PUBLIC "-//W3C//DTD SVG 20010904//EN"
 "http://www.w3.org/TR/2001/REC-SVG-20010904/DTD/svg10.dtd">
<svg version="1.0" xmlns="http://www.w3.org/2000/svg"
 width="400.000000pt" height="400.000000pt" viewBox="0 0 400.000000 400.000000"
 preserveAspectRatio="xMidYMid meet">
<metadata>
Created by potrace 1.14, written by Peter Selinger 2001-2017
</metadata>
<g transform="translate(0.000000,400.000000) scale(0.100000,-0.100000)"
fill="#000000" stroke="none">
<path d="M1240 3811 c0 -5 -11 -12 -25 -15 -14 -4 -23 -11 -20 -16 3 -6 -3
-10 -14 -10 -12 0 -20 -3 -20 -7 3 -20 -3 -35 -21 -53 -11 -11 -15 -20 -10
-20 6 0 10 -8 10 -17 0 -15 -2 -16 -10 -3 -8 13 -10 12 -10 -2 0 -10 -7 -18
-15 -18 -18 0 -20 17 -3 22 12 4 3 28 -10 28 -4 0 -16 -33 -25 -72 -10 -40
-22 -82 -28 -93 -5 -11 -13 -51 -19 -90 -5 -38 -16 -111 -24 -161 -7 -50 -16
-115 -19 -145 -8 -70 -23 -110 -39 -104 -7 3 -26 -6 -42 -20 -16 -14 -25 -25
-20 -25 5 0 2 -5 -6 -10 -10 -6 -11 -10 -2 -10 6 0 12 -5 12 -11 0 -5 -4 -8
-10 -4 -5 3 -5 -7 1 -25 6 -16 14 -30 18 -30 5 0 17 -8 28 -18 18 -15 20 -26
16 -82 -2 -36 -9 -96 -14 -135 -6 -38 -10 -77 -11 -85 0 -8 -4 -32 -9 -52 -23
-89 -36 -473 -28 -803 7 -296 23 -594 35 -660 3 -19 -1 -26 -18 -30 -24 -5
-157 -33 -193 -40 -11 -3 -38 -9 -60 -14 -22 -6 -89 -22 -150 -36 -60 -14
-117 -29 -125 -32 -8 -4 -17 -7 -20 -8 -3 -1 -18 -7 -33 -13 -16 -7 -33 -10
-38 -6 -5 3 -9 1 -9 -3 0 -9 -88 -43 -110 -43 -7 0 -30 -14 -51 -31 -44 -34
-48 -60 -28 -146 26 -108 58 -143 133 -148 31 -2 71 1 89 5 17 5 46 12 62 14
62 11 269 67 279 75 10 8 34 14 96 26 14 3 68 15 120 28 l95 24 8 -30 c5 -17
15 -40 23 -51 8 -11 14 -30 14 -41 0 -21 29 -82 85 -180 19 -33 42 -77 51 -97
20 -46 73 -88 112 -88 17 0 54 11 84 25 29 14 59 25 66 25 7 0 30 17 51 38 38
37 39 40 35 98 -4 59 -40 164 -88 260 -14 27 -28 68 -31 90 l-7 39 69 19 c133
38 309 97 363 123 130 61 528 260 565 282 22 13 41 23 43 21 3 -2 54 25 127
69 17 10 55 31 85 47 30 16 74 42 97 57 24 15 45 27 48 27 3 0 47 29 98 63
283 195 332 230 337 236 3 4 30 28 60 52 30 25 67 56 82 69 15 14 67 61 115
105 132 119 290 313 350 430 50 98 67 168 67 280 0 121 -17 183 -72 258 -41
55 -153 145 -207 165 -16 6 -43 17 -60 23 -16 7 -32 13 -35 14 -135 42 -245
62 -410 74 -176 13 -1088 5 -1435 -13 -159 -8 -291 -14 -292 -13 -1 1 3 36 8
77 13 103 15 118 27 175 18 86 23 142 12 125 -8 -13 -10 -12 -10 5 0 17 -2 17
-10 5 -12 -19 -12 -13 -1 28 6 21 6 32 0 32 -6 0 -7 5 -4 10 3 6 0 10 -7 10
-10 0 -10 2 -1 8 8 5 9 13 3 22 -8 13 -10 13 -10 1 0 -10 -3 -12 -10 -5 -5 5
-10 33 -11 62 -1 28 -6 52 -11 52 -4 0 -8 6 -8 14 0 9 -7 12 -20 9 -11 -3 -20
-1 -20 5 0 5 -7 12 -15 16 -8 3 -15 2 -15 -3z m1705 -985 c192 -21 252 -31
342 -56 56 -16 121 -39 145 -53 39 -21 43 -27 46 -66 5 -61 -65 -202 -157
-321 -42 -54 -321 -331 -371 -369 -19 -14 -44 -34 -55 -44 -11 -10 -49 -35
-85 -55 -36 -20 -100 -60 -144 -90 -101 -69 -217 -137 -331 -194 -98 -49 -244
-126 -260 -138 -5 -4 -32 -15 -60 -26 -27 -10 -63 -26 -80 -36 -16 -10 -49
-27 -72 -38 -67 -31 -137 -63 -143 -65 -3 0 -15 -7 -28 -14 -13 -7 -47 -19
-75 -28 -29 -8 -69 -24 -89 -34 -21 -11 -38 -17 -38 -15 0 3 -18 -1 -40 -9
-22 -8 -41 -14 -43 -14 -1 0 -9 -2 -17 -5 -8 -3 -39 -12 -67 -20 l-53 -15 0
57 c-1 85 -21 467 -36 677 -9 130 -5 331 10 465 3 25 8 74 11 110 7 80 25 256
30 290 2 14 4 31 4 38 1 6 8 12 16 12 8 0 15 4 15 10 0 5 -7 7 -15 4 -9 -4
-15 0 -15 10 0 13 14 16 78 17 42 1 88 3 102 5 14 2 114 6 223 8 109 3 201 6
203 9 6 6 988 -1 1049 -7z"/>
<path d="M980 3430 c0 -5 5 -10 11 -10 5 0 7 5 4 10 -3 6 -8 10 -11 10 -2 0
-4 -4 -4 -10z"/>
</g>
</svg>
